# xmcd CD database file
#
# Track frame offsets:
#	150
#	15703
#	31721
#	47958
#	71782
#	92104
#	104804
#	118034
#	129927
#	153057
#	172429
#	193080
#
# Disc length: 2754 seconds
#
# Revision: 0
# Processed by: cddbd v1.5.2PL0 Copyright (c) Steve Scherf et al.
# Submitted via: CDex 1.51
#
DISCID=a80ac00c
DTITLE=Rehan Syed Ensemble - Merci à Django
DYEAR=2011
DGENRE=Jazz
TTITLE0=Rehan Syed Ensemble - Vendredi 13 
TTITLE1=Rehan Syed Ensemble - Vipers Dream
TTITLE2=Rehan Syed Ensemble - Minor Swing 
TTITLE3=Rehan Syed Ensemble - Dinette 
TTITLE4=Rehan Syed Ensemble - Summertime 
TTITLE5=Rehan Syed Ensemble - Daphne 
TTITLE6=Rehan Syed Ensemble - Honeysuckle Rose 
TTITLE7=Rehan Syed Ensemble - Swing 48
TTITLE8=Rehan Syed Ensemble - Si tu savais
TTITLE9=Rehan Syed Ensemble - Bei mir bist du schön
TTITLE10=Rehan Syed Ensemble - Mabel 
TTITLE11=Rehan Syed Ensemble - Tico Tico 
EXTD=YEAR: 2011
EXTT0=
EXTT1=
EXTT2=
EXTT3=
EXTT4=
EXTT5=
EXTT6=
EXTT7=
EXTT8=
EXTT9=
EXTT10=
EXTT11=
PLAYORDER=
